<svg width="250" height="250" viewBox="0 0 250 250" fill="none" xmlns="http://www.w3.org/2000/svg">
<g clip-path="url(#clip0)">
<path d="M204.79 249.86C202.728 249.86 197.881 247.272 193.591 244.975C185.588 240.71 175.606 235.39 165.726 235.39C156.961 235.39 150.422 239.572 144.647 243.256C139.47 246.569 134.582 249.694 128.415 249.819C121.774 249.694 116.845 246.486 111.606 243.07C105.789 239.282 99.7875 235.37 91.1456 235.37C81.2661 235.37 71.2422 240.69 63.1984 244.954C58.8878 247.252 53.979 249.839 51.9164 249.839C49.4208 249.839 45.2545 247.748 45.0276 246.651C45.0689 246.506 45.1308 246.279 45.172 246.134C45.2133 245.927 49.5445 224.812 53.0508 203.656C60.6615 157.743 57.2996 156.376 53.7315 154.907C29.7444 145.095 6.99477 109.966 7.53102 90.9421C7.63415 86.8641 9.16041 82.4963 11.5529 82.2479C11.7386 82.2272 11.9036 82.2065 12.0686 82.2065C12.7492 82.2065 12.9761 82.31 15.0386 84.8976C16.2761 86.4501 17.8024 88.3546 20.0711 90.5695C30.6312 100.837 39.2938 105.412 53.0921 108.061C53.3602 108.103 53.6077 108.144 53.8758 108.144C54.8246 108.144 55.7527 107.813 56.4952 107.192C57.444 106.405 58.0009 105.225 58.0009 104.004V75.6238C58.0009 58.4837 65.1166 41.4265 77.5536 28.8406C90.7331 15.4888 108.698 8.14011 128.168 8.14011C166.613 8.14011 199.077 39.046 199.077 75.6238V104.004C199.077 105.267 199.655 106.468 200.624 107.233C201.367 107.813 202.274 108.144 203.202 108.144C203.512 108.144 203.821 108.103 204.13 108.041C217.475 104.956 227.581 99.5742 236.863 90.5695C239.152 88.3546 240.678 86.4087 241.916 84.8562C243.999 82.2065 244.164 82.2065 244.803 82.2065C244.968 82.2065 245.133 82.2272 245.298 82.2272C247.67 82.4756 249.176 86.8434 249.279 90.9007C249.774 109.945 227.004 145.074 203.017 154.927C199.448 156.397 196.087 157.763 203.697 203.677C207.204 224.833 211.535 245.948 211.576 246.155C211.597 246.299 211.638 246.424 211.679 246.569C211.473 247.769 207.307 249.86 204.79 249.86Z" fill="url(#paint0_linear)"/>
<path d="M128.127 12.2802C164.324 12.2802 194.911 41.2816 194.911 75.6237V104.004C194.911 106.53 196.066 108.91 198.025 110.483C199.49 111.663 201.325 112.284 203.161 112.284C203.78 112.284 204.399 112.222 205.017 112.077C219.146 108.827 229.829 103.093 239.688 93.5504C241.936 91.3768 243.525 89.431 244.721 87.9198C244.948 88.7686 245.113 89.8243 245.154 91.0249C245.401 100.133 240.059 112.967 230.861 125.388C221.93 137.456 210.648 147.31 201.449 151.098C194.354 153.996 192.209 159.626 199.634 204.36C202.542 221.852 205.987 239.303 207.142 245.037C206.358 245.389 205.43 245.658 204.894 245.72C203.264 245.451 198.809 243.07 195.55 241.331C187.135 236.839 176.658 231.271 165.747 231.271C155.785 231.271 148.711 235.804 142.461 239.799C137.635 242.884 133.448 245.554 128.539 245.72C123.012 245.575 118.99 242.946 113.895 239.634C107.873 235.721 101.046 231.271 91.1868 231.271C80.2761 231.271 69.7573 236.839 61.3009 241.331C58.0215 243.07 53.5459 245.451 51.8958 245.72C51.339 245.658 50.4108 245.389 49.6477 245.057C50.8027 239.323 54.2677 221.873 57.1553 204.381C64.5803 159.647 62.4147 154.017 55.3196 151.118C46.1208 147.351 34.8594 137.498 25.9287 125.408C16.7505 112.988 11.4086 100.133 11.6561 91.0249C11.6973 89.7829 11.8623 88.7065 12.1098 87.8577C13.3061 89.3689 14.9355 91.3561 17.2043 93.5297C28.445 104.439 37.6232 109.303 52.329 112.119C52.8446 112.222 53.3602 112.264 53.8759 112.264C55.7734 112.264 57.6503 111.601 59.1353 110.359C61.0328 108.786 62.1259 106.447 62.1259 103.983V75.6237C62.1259 59.5602 68.8085 43.5794 80.4824 31.7594C92.8369 19.1942 109.77 12.2802 128.127 12.2802ZM128.127 4C84.4012 4 53.8552 38.6112 53.8552 75.6237V104.004C40.2839 101.396 32.5907 96.9867 22.9174 87.5886C17.0805 81.9581 16.4205 78.0664 12.048 78.0664C11.7592 78.0664 11.4498 78.0871 11.1198 78.1285C5.73666 78.6874 3.55039 85.3944 3.40602 90.8179C2.74601 114.665 30.1775 149.732 52.1846 158.778C58.4134 161.324 41.1501 245.326 41.1501 245.326C39.4382 250.729 48.2246 254 51.9371 254C59.4034 254 76.0686 239.53 91.1662 239.53C106.099 239.53 112.678 253.669 128.518 253.979C143.286 253.689 150.773 239.53 165.726 239.53C180.824 239.53 197.324 254 204.79 254C208.524 254 217.31 250.729 215.598 245.326C215.598 245.326 198.355 161.324 204.564 158.778C226.571 149.732 254.023 114.665 253.383 90.8179C253.239 85.3944 251.073 78.6874 245.711 78.1285C245.381 78.0871 245.071 78.0664 244.762 78.0664C240.369 78.0664 239.771 81.9581 233.954 87.5886C224.24 96.9867 214.464 101.396 203.161 104.004V75.6237C203.161 37.9902 170.367 4 128.127 4Z" fill="#A1A1A1"/>
<path d="M128.374 123.442C108.759 123.442 90.5474 121.786 75.326 118.971C71.5516 118.267 68.2103 121.6 68.9941 125.367C74.0473 150.187 98.385 170.577 128.353 170.577C161.147 170.577 183.216 149.525 187.795 125.284C188.496 121.538 185.176 118.267 181.443 118.971C166.242 121.786 148.009 123.442 128.374 123.442Z" fill="#242424"/>
<g opacity="0.2">
<path opacity="0.2" d="M181.484 125.264C179.236 135.697 173.316 145.219 164.757 152.174C154.981 160.144 142.399 164.346 128.353 164.346C103.067 164.346 80.4824 147.62 75.3054 125.264C91.1662 128.12 109.481 129.631 128.374 129.631C147.287 129.652 165.623 128.141 181.484 125.264ZM182.453 118.867C182.123 118.867 181.793 118.888 181.443 118.971C166.242 121.807 147.989 123.442 128.374 123.442C108.76 123.442 90.5475 121.786 75.3261 118.971C74.9754 118.909 74.6454 118.867 74.3154 118.867C70.9948 118.867 68.2929 121.931 68.9941 125.367C74.0473 150.187 98.385 170.577 128.353 170.577C161.148 170.577 183.216 149.525 187.795 125.284C188.435 121.869 185.753 118.867 182.453 118.867Z" fill="black"/>
</g>
<path d="M134.562 194.196H124.435C111.173 194.196 100.427 183.411 100.427 170.101V107.585H158.569V170.101C158.569 183.411 147.824 194.196 134.562 194.196Z" fill="#E04C74"/>
<g opacity="0.3">
<path opacity="0.3" d="M152.691 113.464V170.101C152.691 180.141 144.565 188.297 134.562 188.297H124.435C114.431 188.297 106.305 180.141 106.305 170.101V113.464H152.691ZM158.569 107.585H100.427V170.101C100.427 183.411 111.173 194.196 124.435 194.196H134.562C147.824 194.196 158.569 183.411 158.569 170.101V107.585Z" fill="#AB3F2E"/>
</g>
<path opacity="0.3" d="M129.508 107.585V160.413" stroke="#AB3F2E" stroke-width="3" stroke-miterlimit="10" stroke-linecap="round"/>
<path d="M153.887 115.1C171.897 115.1 186.496 100.447 186.496 82.3721C186.496 64.2972 171.897 49.6446 153.887 49.6446C135.878 49.6446 121.279 64.2972 121.279 82.3721C121.279 100.447 135.878 115.1 153.887 115.1Z" fill="white"/>
<path d="M153.887 57.9455C167.314 57.9455 178.246 68.9168 178.246 82.3928C178.246 95.8688 167.314 106.84 153.887 106.84C140.46 106.84 129.529 95.8688 129.529 82.3928C129.529 68.9168 140.46 57.9455 153.887 57.9455ZM153.887 49.6653C135.882 49.6653 121.279 64.3213 121.279 82.3928C121.279 100.464 135.882 115.12 153.887 115.12C171.893 115.12 186.496 100.464 186.496 82.3928C186.496 64.3213 171.893 49.6653 153.887 49.6653Z" fill="#A1A1A1"/>
<path d="M153.887 70.7384C147.576 70.7384 142.482 74.4852 142.482 82.3721C142.482 90.259 147.597 94.0058 153.887 94.0058C160.199 94.0058 165.293 90.259 165.293 82.3721C165.293 74.4852 160.199 70.7384 153.887 70.7384Z" fill="#242424"/>
<path d="M107.955 95.579C107.955 95.579 107.811 95.5169 107.543 95.3927C107.419 95.3306 107.254 95.2685 107.068 95.1857C106.944 95.1443 106.779 95.1029 106.614 95.0615C106.305 94.958 105.769 94.7924 105.191 94.6475C104.634 94.4819 103.954 94.3577 103.211 94.2128C101.726 93.9437 99.9319 93.7781 97.9725 93.7367C96.0131 93.716 93.9094 93.8402 91.8056 94.1507C91.4137 94.2128 90.5681 94.3163 90.1762 94.3991C89.7018 94.4819 89.2275 94.5647 88.6912 94.6889C87.6806 94.9166 86.6906 95.1443 85.7624 95.4341C83.8855 96.0137 82.2149 96.6555 80.8536 97.3179C79.513 97.9803 78.4817 98.622 77.8011 99.0774C77.4711 99.3051 77.203 99.4914 77.038 99.6363C76.873 99.7605 76.7698 99.8433 76.7698 99.8433L76.3367 100.154C74.6454 101.417 72.2735 101.065 71.0154 99.3672C69.9841 97.9803 70.046 96.1379 71.0154 94.8338C71.0154 94.8338 71.1185 94.6889 71.3454 94.3991C71.5517 94.1093 71.861 93.6746 72.3148 93.1985C72.7479 92.7017 73.3048 92.122 73.9648 91.5424C74.6248 90.9421 75.4086 90.3211 76.2955 89.7208C78.0486 88.4787 80.2349 87.3402 82.6686 86.4087C83.8855 85.9533 85.1437 85.5186 86.4637 85.2081C87.1031 85.0425 87.8043 84.8976 88.5056 84.7527C89.2893 84.5871 89.6606 84.5457 90.465 84.4008C93.1669 84.0488 95.91 83.9453 98.5088 84.173C101.087 84.4007 103.5 84.8976 105.542 85.6014C106.553 85.9326 107.481 86.3259 108.285 86.7192C109.11 87.0918 109.729 87.4851 110.368 87.8784C110.678 88.0647 110.946 88.251 111.173 88.4166C111.338 88.5408 111.482 88.6651 111.585 88.7479C111.812 88.9342 111.936 89.017 111.936 89.017C113.586 90.3625 113.854 92.7845 112.513 94.4405C111.358 95.8481 109.502 96.2621 107.955 95.579Z" fill="#242424"/>
<path d="M106.924 94.1921C106.924 94.1921 106.8 94.0886 106.594 93.8816C106.367 93.6332 106.099 93.4469 105.789 93.1778C105.088 92.5982 104.016 91.7288 102.654 90.7144C101.273 89.7208 99.6226 88.5616 97.7869 87.3816C96.8588 86.802 95.8894 86.2017 94.92 85.6014C93.9506 85.0011 92.8781 84.3801 91.9294 83.8626C90.8156 83.2208 89.8462 82.6826 88.8356 82.1444C87.8249 81.6062 86.8143 81.0887 85.8449 80.5919C83.8855 79.619 82.0499 78.7702 80.503 78.1078C78.9355 77.4454 77.6567 76.9693 76.7698 76.6588C75.9036 76.3897 75.4292 76.2241 75.4292 76.2241L75.0373 76.0999C73.0367 75.4582 71.9435 73.2846 72.5829 71.2767C73.1192 69.6206 74.6661 68.5856 76.3161 68.627C76.3161 68.627 76.5017 68.627 76.8523 68.6477C77.203 68.6477 77.7186 68.6684 78.3374 68.7305C79.5955 68.8547 81.328 69.1238 83.308 69.662C85.288 70.1795 87.5156 70.9247 89.805 71.877C90.9393 72.3738 92.1356 72.8706 93.27 73.4502C94.4456 74.0298 95.6625 74.6922 96.7144 75.2511C97.9313 75.955 99.0038 76.6174 100.097 77.3212C101.19 78.0043 102.221 78.7702 103.232 79.4948C105.233 80.9852 107.006 82.517 108.45 83.9454C109.915 85.3737 111.028 86.7192 111.791 87.7543C112.225 88.3132 112.513 88.7686 112.637 88.9963C112.781 89.2447 112.864 89.3896 112.864 89.3896C113.957 91.2112 113.4 93.5711 111.585 94.6889C110.059 95.6205 108.141 95.3513 106.924 94.1921Z" fill="#242424"/>
</g>
<defs>
<linearGradient id="paint0_linear" x1="128.395" y1="13.379" x2="128.395" y2="246.458" gradientUnits="userSpaceOnUse">
<stop offset="0.00131497" stop-color="#C7C7C7"/>
<stop offset="0.2797" stop-color="#CACACA"/>
<stop offset="0.5253" stop-color="#D5D5D5"/>
<stop offset="0.7578" stop-color="#E7E7E7"/>
<stop offset="0.9473" stop-color="#FCFCFC"/>
</linearGradient>
<clipPath id="clip0">
<rect width="250" height="250" fill="white"/>
</clipPath>
</defs>
</svg>
