<svg width="151" height="152" viewBox="0 0 151 152" fill="none" xmlns="http://www.w3.org/2000/svg">
<circle r="73.5" transform="matrix(-1 0 0 1 76 76)" stroke="black" stroke-width="3"/>
<ellipse cx="75.6442" cy="108.271" rx="38.25" ry="2.25" transform="rotate(89.4093 75.6442 108.271)" fill="black"/>
<ellipse cx="52.3988" cy="105.161" rx="38.25" ry="2.25" transform="rotate(81.4698 52.3988 105.161)" fill="black"/>
<ellipse rx="38.25" ry="2.25" transform="matrix(-0.148331 0.988938 0.988938 0.148331 98.8988 105.161)" fill="black"/>
<path d="M1 1H64.6432H150V151H1V1Z" stroke="black"/>
<path d="M1 1L64 1.75294L53.6235 4.01176L46.2118 7.02353L41.0235 9.28235L35.8353 12.2941L31.3882 15.3059L27.6824 18.3176L22.4941 22.8353L20.2706 25.8471L17.3059 28.8588L14.3412 33.3765L10.6353 38.6471L9.15294 42.4118L6.92941 46.1765L4.70588 52.2L3.22353 58.2235L1.74118 65L1 1Z" fill="#C4C4C4"/>
<path d="M150 1L86 1.75294L96.5412 4.01176L104.071 7.02353L109.341 9.28235L114.612 12.2941L119.129 15.3059L122.894 18.3176L128.165 22.8353L130.424 25.8471L133.435 28.8588L136.447 33.3765L140.212 38.6471L141.718 42.4118L143.976 46.1765L146.235 52.2L147.741 58.2235L149.247 65L150 1Z" fill="#C4C4C4"/>
<path d="M150 150H87.5059L86 149.259L96.5412 147.035L104.071 144.071L109.341 141.847L114.612 138.882L119.129 135.918L122.894 132.953L128.165 128.506L130.424 125.541L133.435 122.576L136.447 118.129L140.212 112.941L141.718 109.235L143.976 105.529L146.235 99.6L147.741 93.6706L149.247 87L150 150Z" fill="#C4C4C4"/>
<path d="M1 150H62.5176L64 149.259L53.6235 147.035L46.2118 144.071L41.0235 141.847L35.8353 138.882L31.3882 135.918L27.6824 132.953L22.4941 128.506L20.2706 125.541L17.3059 122.576L14.3412 118.129L10.6353 112.941L9.15294 109.235L6.92941 105.529L4.70588 99.6L3.22353 93.6706L1.74118 87L1 150Z" fill="#C4C4C4"/>
</svg>
