<svg width="100" height="35" viewBox="0 0 100 35" fill="none" xmlns="http://www.w3.org/2000/svg">
<rect width="100" height="15" fill="black"/>
<rect x="79" y="11" width="6" height="24" fill="black"/>
<path d="M79.5 17.5C79.5 19.6609 77.5361 21.5 75 21.5C72.4639 21.5 70.5 19.6609 70.5 17.5C70.5 15.3391 72.4639 13.5 75 13.5C77.5361 13.5 79.5 15.3391 79.5 17.5Z" stroke="black"/>
<line y1="-0.5" x2="6.40488" y2="-0.5" transform="matrix(-0.975818 0.218583 -0.175791 -0.984428 80 15.4)" stroke="black"/>
<line x1="3.5" x2="3.5" y2="15" stroke="#B3B3B3"/>
<line x1="8.5" x2="8.5" y2="15" stroke="#B3B3B3"/>
<line x1="13.5" x2="13.5" y2="15" stroke="#B3B3B3"/>
<path d="M46.5628 13.7913C46.47 13.7913 46.2519 13.6609 46.0589 13.5451C45.6988 13.3302 45.2495 13.062 44.805 13.062C44.4105 13.062 44.1163 13.2728 43.8564 13.4585C43.6235 13.6254 43.4035 13.783 43.126 13.7892C42.8271 13.783 42.6053 13.6213 42.3695 13.4491C42.1078 13.2582 41.8377 13.061 41.4488 13.061C41.0043 13.061 40.5532 13.3291 40.1912 13.5441C39.9972 13.6599 39.7763 13.7903 39.6835 13.7903C39.5712 13.7903 39.3837 13.6849 39.3735 13.6296C39.3754 13.6223 39.3782 13.6108 39.38 13.6035C39.3819 13.5931 39.5768 12.5289 39.7346 11.4627C40.0771 9.14861 39.9258 9.07975 39.7652 9.00568C38.6858 8.51115 37.662 6.74066 37.6862 5.78186C37.6908 5.57633 37.7595 5.3562 37.8672 5.34368C37.8755 5.34263 37.8829 5.34159 37.8904 5.34159C37.921 5.34159 37.9312 5.34681 38.024 5.47722C38.0797 5.55547 38.1484 5.65145 38.2505 5.76308C38.7257 6.28056 39.1155 6.51114 39.7364 6.64468C39.7485 6.64676 39.7596 6.64885 39.7717 6.64885C39.8144 6.64885 39.8562 6.63216 39.8896 6.60086C39.9323 6.56121 39.9573 6.50175 39.9573 6.44019V5.00982C39.9573 4.14596 40.2775 3.28628 40.8372 2.65195C41.4303 1.97902 42.2387 1.60864 43.1148 1.60864C44.8449 1.60864 46.3058 3.1663 46.3058 5.00982V6.44019C46.3058 6.50383 46.3317 6.56434 46.3754 6.60295C46.4088 6.63216 46.4496 6.64885 46.4914 6.64885C46.5053 6.64885 46.5192 6.64676 46.5331 6.64363C47.1337 6.48818 47.5884 6.21692 48.0061 5.76308C48.1091 5.65145 48.1778 5.55338 48.2335 5.47513C48.3272 5.34159 48.3347 5.34159 48.3634 5.34159C48.3709 5.34159 48.3783 5.34263 48.3857 5.34263C48.4924 5.35515 48.5602 5.57529 48.5648 5.77978C48.5871 6.73962 47.5624 8.51011 46.483 9.00672C46.3225 9.0808 46.1712 9.14965 46.5137 11.4637C46.6714 12.53 46.8663 13.5941 46.8682 13.6046C46.8691 13.6119 46.871 13.6181 46.8728 13.6254C46.8636 13.6859 46.6761 13.7913 46.5628 13.7913Z" fill="url(#paint0_linear)"/>
<path d="M43.113 1.81732C44.7418 1.81732 46.1182 3.27899 46.1182 5.00983V6.4402C46.1182 6.56749 46.1702 6.68747 46.2584 6.76676C46.3243 6.82623 46.4069 6.85753 46.4895 6.85753C46.5173 6.85753 46.5452 6.8544 46.573 6.84709C47.2088 6.68329 47.6896 6.3943 48.1332 5.91333C48.2344 5.80379 48.3059 5.70572 48.3597 5.62955C48.3699 5.67233 48.3773 5.72554 48.3792 5.78605C48.3903 6.2451 48.1499 6.89195 47.736 7.51794C47.3341 8.12618 46.8264 8.6228 46.4125 8.81372C46.0932 8.95979 45.9967 9.24357 46.3308 11.4981C46.4617 12.3797 46.6167 13.2592 46.6686 13.5482C46.6334 13.566 46.5916 13.5795 46.5675 13.5827C46.4941 13.5691 46.2937 13.4491 46.147 13.3615C45.7683 13.1351 45.2968 12.8544 44.8059 12.8544C44.3576 12.8544 44.0392 13.0829 43.758 13.2843C43.5408 13.4397 43.3524 13.5743 43.1315 13.5827C42.8828 13.5754 42.7018 13.4429 42.4725 13.2759C42.2015 13.0788 41.8943 12.8544 41.4507 12.8544C40.9597 12.8544 40.4863 13.1351 40.1058 13.3615C39.9582 13.4491 39.7568 13.5691 39.6826 13.5827C39.6575 13.5795 39.6157 13.566 39.5814 13.5493C39.6334 13.2603 39.7893 12.3808 39.9192 11.4992C40.2534 9.24461 40.1559 8.96083 39.8366 8.81477C39.4227 8.62488 38.9159 8.12827 38.514 7.51898C38.101 6.893 37.8606 6.2451 37.8718 5.78605C37.8736 5.72345 37.8811 5.6692 37.8922 5.62642C37.946 5.70259 38.0194 5.80274 38.1214 5.91229C38.6273 6.46211 39.0403 6.70729 39.7021 6.84918C39.7253 6.8544 39.7485 6.85648 39.7717 6.85648C39.8571 6.85648 39.9415 6.8231 40.0083 6.7605C40.0937 6.68121 40.1429 6.56331 40.1429 6.43916V5.00983C40.1429 4.20023 40.4436 3.39479 40.969 2.79907C41.5249 2.16578 42.2869 1.81732 43.113 1.81732ZM43.113 1.39999C41.1453 1.39999 39.7707 3.1444 39.7707 5.00983V6.4402C39.16 6.30875 38.8138 6.08652 38.3785 5.61286C38.1159 5.32908 38.0862 5.13294 37.8894 5.13294C37.8764 5.13294 37.8625 5.13398 37.8476 5.13607C37.6054 5.16424 37.507 5.50227 37.5005 5.77562C37.4708 6.97751 38.7052 8.74486 39.6956 9.20079C39.9759 9.32912 39.199 13.5629 39.199 13.5629C39.122 13.8352 39.5174 14 39.6844 14C40.0204 14 40.7703 13.2707 41.4497 13.2707C42.1217 13.2707 42.4178 13.9833 43.1306 13.999C43.7951 13.9843 44.132 13.2707 44.8049 13.2707C45.4843 13.2707 46.2268 14 46.5628 14C46.7308 14 47.1262 13.8352 47.0492 13.5629C47.0492 13.5629 46.2732 9.32912 46.5526 9.20079C47.5429 8.74486 48.7783 6.97751 48.7495 5.77562C48.743 5.50227 48.6456 5.16424 48.4042 5.13607C48.3894 5.13398 48.3755 5.13294 48.3615 5.13294C48.1639 5.13294 48.1369 5.32908 47.8752 5.61286C47.4381 6.08652 46.9981 6.30875 46.4895 6.4402V5.00983C46.4895 3.1131 45.0138 1.39999 43.113 1.39999Z" fill="#A1A1A1"/>
<path d="M43.1241 7.42014C42.2414 7.42014 41.4219 7.33667 40.7369 7.19478C40.5671 7.15931 40.4167 7.32728 40.452 7.51716C40.6794 8.76809 41.7746 9.79574 43.1232 9.79574C44.5989 9.79574 45.592 8.7347 45.798 7.51299C45.8296 7.32415 45.6802 7.15931 45.5122 7.19478C44.8281 7.33667 44.0077 7.42014 43.1241 7.42014Z" fill="#242424"/>
<g opacity="0.2">
<path opacity="0.2" d="M45.515 7.51173C45.4139 8.03755 45.1475 8.51747 44.7623 8.86802C44.3224 9.2697 43.7562 9.48149 43.1242 9.48149C41.9863 9.48149 40.97 8.6385 40.737 7.51173C41.4507 7.6557 42.2749 7.73187 43.1251 7.73187C43.9762 7.73291 44.8013 7.65675 45.515 7.51173ZM45.5587 7.18935C45.5438 7.18935 45.529 7.19039 45.5132 7.19456C44.8291 7.3375 44.0077 7.41992 43.1251 7.41992C42.2424 7.41992 41.4229 7.33645 40.7379 7.19456C40.7221 7.19143 40.7073 7.18935 40.6924 7.18935C40.543 7.18935 40.4214 7.34376 40.453 7.51694C40.6804 8.76787 41.7756 9.79552 43.1242 9.79552C44.5999 9.79552 45.593 8.73448 45.799 7.51277C45.8278 7.34063 45.7072 7.18935 45.5587 7.18935Z" fill="black"/>
</g>
<path d="M43.4025 10.9859H42.9468C42.35 10.9859 41.8665 10.4424 41.8665 9.77151V6.62073H44.4829V9.77151C44.4829 10.4424 43.9993 10.9859 43.4025 10.9859Z" fill="#E04C74"/>
<g opacity="0.3">
<path opacity="0.3" d="M44.2183 6.91703V9.77151C44.2183 10.2775 43.8527 10.6886 43.4025 10.6886H42.9468C42.4967 10.6886 42.131 10.2775 42.131 9.77151V6.91703H44.2183ZM44.4829 6.62073H41.8665V9.77151C41.8665 10.4424 42.35 10.9859 42.9468 10.9859H43.4025C43.9993 10.9859 44.4829 10.4424 44.4829 9.77151V6.62073Z" fill="#AB3F2E"/>
</g>
<path opacity="0.3" d="M43.1751 6.62073V9.28324" stroke="#AB3F2E" stroke-width="3" stroke-miterlimit="10" stroke-linecap="round"/>
<path d="M44.2722 6.9994C45.0826 6.9994 45.7396 6.26091 45.7396 5.34994C45.7396 4.43896 45.0826 3.70047 44.2722 3.70047C43.4618 3.70047 42.8048 4.43896 42.8048 5.34994C42.8048 6.26091 43.4618 6.9994 44.2722 6.9994Z" fill="white"/>
<path d="M44.2722 4.1188C44.8764 4.1188 45.3683 4.67175 45.3683 5.35094C45.3683 6.03013 44.8764 6.58309 44.2722 6.58309C43.668 6.58309 43.1761 6.03013 43.1761 5.35094C43.1761 4.67175 43.668 4.1188 44.2722 4.1188ZM44.2722 3.70148C43.4619 3.70148 42.8048 4.44014 42.8048 5.35094C42.8048 6.26175 43.4619 7.00041 44.2722 7.00041C45.0824 7.00041 45.7396 6.26175 45.7396 5.35094C45.7396 4.44014 45.0824 3.70148 44.2722 3.70148Z" fill="#A1A1A1"/>
<path d="M44.2722 4.76357C43.9882 4.76357 43.7589 4.9524 43.7589 5.3499C43.7589 5.7474 43.9891 5.93624 44.2722 5.93624C44.5562 5.93624 44.7854 5.7474 44.7854 5.3499C44.7854 4.9524 44.5562 4.76357 44.2722 4.76357Z" fill="#242424"/>
<path d="M42.2052 6.01552C42.2052 6.01552 42.1987 6.01239 42.1866 6.00613C42.181 6.003 42.1736 5.99987 42.1653 5.99569C42.1597 5.99361 42.1523 5.99152 42.1449 5.98943C42.1309 5.98422 42.1068 5.97587 42.0808 5.96857C42.0558 5.96022 42.0251 5.95396 41.9917 5.94666C41.9249 5.93309 41.8441 5.92475 41.756 5.92266C41.6678 5.92162 41.5731 5.92788 41.4785 5.94353C41.4608 5.94666 41.4228 5.95187 41.4051 5.95605C41.3838 5.96022 41.3624 5.96439 41.3383 5.97065C41.2928 5.98213 41.2483 5.99361 41.2065 6.00821C41.122 6.03742 41.0469 6.06977 40.9856 6.10315C40.9253 6.13654 40.8789 6.16888 40.8482 6.19183C40.8334 6.20331 40.8213 6.2127 40.8139 6.22C40.8065 6.22626 40.8018 6.23044 40.8018 6.23044L40.7824 6.24609C40.7062 6.30973 40.5995 6.29199 40.5429 6.20644C40.4965 6.13654 40.4993 6.04368 40.5429 5.97796C40.5429 5.97796 40.5475 5.97065 40.5577 5.95605C40.567 5.94144 40.5809 5.91953 40.6014 5.89554C40.6209 5.8705 40.6459 5.84128 40.6756 5.81207C40.7053 5.78182 40.7406 5.75052 40.7805 5.72026C40.8594 5.65766 40.9578 5.60028 41.0673 5.55333C41.122 5.53038 41.1787 5.50847 41.2381 5.49282C41.2668 5.48447 41.2984 5.47717 41.33 5.46987C41.3652 5.46152 41.3819 5.45943 41.4181 5.45213C41.5397 5.43439 41.6632 5.42918 41.7801 5.44065C41.8961 5.45213 42.0047 5.47717 42.0966 5.51264C42.1421 5.52933 42.1838 5.54916 42.22 5.56898C42.2572 5.58776 42.285 5.60758 42.3138 5.62741C42.3277 5.6368 42.3398 5.64619 42.35 5.65453C42.3574 5.66079 42.3639 5.66705 42.3685 5.67122C42.3787 5.68061 42.3843 5.68479 42.3843 5.68479C42.4586 5.7526 42.4706 5.87467 42.4103 5.95813C42.3583 6.02908 42.2748 6.04994 42.2052 6.01552Z" fill="#242424"/>
<path d="M42.1594 5.94565C42.1594 5.94565 42.1538 5.94043 42.1445 5.93C42.1343 5.91748 42.1223 5.90809 42.1083 5.89453C42.0768 5.86531 42.0285 5.82149 41.9673 5.77037C41.9051 5.72029 41.8308 5.66187 41.7482 5.6024C41.7065 5.57319 41.6628 5.54293 41.6192 5.51268C41.5756 5.48242 41.5273 5.45112 41.4846 5.42504C41.4345 5.3927 41.3909 5.36557 41.3454 5.33844C41.2999 5.31132 41.2545 5.28523 41.2108 5.2602C41.1227 5.21116 41.0401 5.16838 40.9705 5.135C40.8999 5.10161 40.8424 5.07762 40.8025 5.06197C40.7635 5.0484 40.7421 5.04006 40.7421 5.04006L40.7245 5.0338C40.6345 5.00146 40.5853 4.89191 40.614 4.79071C40.6382 4.70724 40.7078 4.65508 40.782 4.65716C40.782 4.65716 40.7904 4.65716 40.8062 4.65821C40.822 4.65821 40.8452 4.65925 40.873 4.66238C40.9296 4.66864 41.0076 4.6822 41.0967 4.70933C41.1858 4.73541 41.286 4.77297 41.389 4.82096C41.4401 4.846 41.4939 4.87104 41.545 4.90025C41.5979 4.92947 41.6526 4.96285 41.7 4.99102C41.7547 5.02649 41.803 5.05988 41.8522 5.09535C41.9014 5.12978 41.9478 5.16838 41.9933 5.2049C42.0833 5.28002 42.1631 5.35722 42.2281 5.42921C42.294 5.5012 42.3441 5.56901 42.3784 5.62118C42.3979 5.64935 42.4109 5.6723 42.4165 5.68378C42.423 5.6963 42.4267 5.7036 42.4267 5.7036C42.4759 5.79541 42.4508 5.91435 42.3691 5.97069C42.3005 6.01764 42.2142 6.00407 42.1594 5.94565Z" fill="#242424"/>
<path d="M48.5 7.5C48.5 11.4356 45.7489 14.5 42.5 14.5C39.2511 14.5 36.5 11.4356 36.5 7.5C36.5 3.56444 39.2511 0.5 42.5 0.5C45.7489 0.5 48.5 3.56444 48.5 7.5Z" stroke="#FF0000"/>
<line y1="-0.5" x2="13.0599" y2="-0.5" transform="matrix(-0.765705 0.643192 -0.556411 -0.830907 47.5 2.79999)" stroke="#FF0000"/>
<defs>
<linearGradient id="paint0_linear" x1="43.1251" y1="1.87268" x2="43.1251" y2="13.6199" gradientUnits="userSpaceOnUse">
<stop offset="0.00131497" stop-color="#C7C7C7"/>
<stop offset="0.2797" stop-color="#CACACA"/>
<stop offset="0.5253" stop-color="#D5D5D5"/>
<stop offset="0.7578" stop-color="#E7E7E7"/>
<stop offset="0.9473" stop-color="#FCFCFC"/>
</linearGradient>
</defs>
</svg>
